# xmcd
#
# Track frame offsets:
#	150
#	25945
#	41266
#	63586
#	92172
#	102747
#	121626
#	145782
#	173658
#	185796
#	198151
#	215223
#	239688
#
# Disc length: 4021 seconds
#
# Revision: 0
# Processed by: cddbd v1.5.1PL0 Copyright (c) Steve Scherf et al.
# Submitted via: dBpowerAMP V4.0
#
DISCID=be0fb30d
DTITLE=Botafogo - Botafogo - collection
DYEAR=2004
DGENRE=Blues
TTITLE0=Desde el Mirador (Vilanova)
TTITLE1=Back Door Man (Willie Dixon)
TTITLE2=Aw'some Funk (Snooks Eaglin)
TTITLE3=Mundo de Luz (Vilanova)
TTITLE4=I Wanna Be Loved (Muddy Waters)
TTITLE5=Rocanrol Blues (Vilanova) - CD-ROM track 
TTITLE6=She's a Good'un (Eskridge/White)
TTITLE7=Lilah (Vilanova)
TTITLE8=Ver Para Creer ou Creer Para Ver (Vilanova)
TTITLE9=Sleepwalk (Johnny and Santo Farina)
TTITLE10=Built For Comfort (Willie Dixon)
TTITLE11=The Thrill Is Gone (Hawkins/Darnell)
TTITLE12=DATA
EXTD=botafogo
EXTT0=
EXTT1=
EXTT2=
EXTT3=
EXTT4=
EXTT5=
EXTT6=
EXTT7=
EXTT8=
EXTT9=
EXTT10=
EXTT11=
EXTT12=
PLAYORDER=
